PathFileType	4	(X/Y/Z)	D:\TRACE\spotREDO_2-26-24\spot_justArm_Motion_2_1-v60.trc
DataRate	CameraRate	NumFrames	NumMarkers	Units	OrigDataRate	OrigDataStartFrame	OrigNumFrames
100.00	100.00	      38	9	mm	100.00	3501	      7000
Frame#	Time	front left toe			Front right toe			aft left toe			aft right toe			Arm			FL body			FR body			AL Body			AR Body			
		X1	Y1	Z1	X2	Y2	Z2	X3	Y3	Z3	X4	Y4	Z4	X5	Y5	Z5	X6	Y6	Z6	X7	Y7	Z7	X8	Y8	Z8	X9	Y9	Z9	

3501	35.000	-252.13847	11.60217	-199.21243	174.34584	10.25577	-125.65458	-360.16678	44.57159	421.98651	67.74194	43.95574	433.12442	-65.03046	751.62024	-818.14978	-71.72467	554.99408	-228.92404	81.41744	563.17200	-203.54253	-227.30124	555.65448	641.04218	-80.59917	558.55151	667.59985	
3502	35.010	-252.54260	11.04613	-199.55800	174.03154	9.97490	-125.88718	-360.27145	45.43001	421.56577	67.28602	44.42715	432.92331	-65.83310	751.70148	-818.35852	-72.72771	554.47260	-229.32512	80.36375	562.51471	-203.94395	-228.26360	556.94452	640.51923	-81.37000	559.48633	667.31323	
3503	35.020	-252.74326	10.34932	-199.89534	173.85529	10.31548	-125.77645	-360.45898	45.98802	421.21548	67.05637	45.58278	432.78720	-66.45856	751.67975	-818.44574	-73.86636	553.78119	-229.84547	79.25908	561.78516	-204.34575	-229.11862	557.90594	640.02765	-82.52086	560.78894	666.80023	
3504	35.030	-252.91945	9.97651	-199.93475	173.99548	9.76509	-126.41665	-360.48239	46.46392	420.82550	67.07216	46.19386	432.49039	-67.57397	751.58319	-818.96796	-74.78730	553.24591	-230.18619	78.16047	561.13495	-204.82036	-229.94942	559.09967	639.89679	-83.26789	561.75031	666.50946	
3505	35.040	-253.24962	9.66131	-200.05272	173.72577	9.70363	-126.69328	-360.68024	46.98125	420.47913	66.70747	46.89593	432.04382	-68.38008	751.30145	-819.26581	-75.83031	552.56775	-230.39207	76.96823	560.43280	-205.26294	-230.81487	560.27899	639.35406	-84.26936	563.03113	665.98608	
3506	35.050	-253.44177	9.30030	-200.37347	173.39249	9.42974	-127.00820	-360.92691	47.55392	420.39346	66.71139	47.53574	431.97562	-68.88645	751.11963	-819.72870	-77.02886	552.25305	-230.85065	76.05326	559.89667	-205.50742	-231.66945	561.51685	639.01587	-84.96633	564.10779	665.81708	
3507	35.060	-253.55914	8.95888	-200.56166	173.06210	9.54427	-127.14417	-360.86679	48.27032	420.16223	66.58450	48.26373	431.61533	-69.42535	750.82867	-819.65881	-77.97079	551.56329	-231.24376	75.67570	558.86176	-205.64238	-232.64290	562.90076	638.68018	-86.06480	565.17877	665.15411	
3508	35.070	-253.58266	8.56252	-200.69864	172.84854	9.22017	-127.44161	-360.86911	48.65846	419.91028	66.51715	49.08495	431.19354	-70.24335	750.41595	-820.18225	-79.15804	550.99402	-231.80898	74.54317	558.19800	-206.30424	-233.27109	563.72980	638.23969	-86.85572	566.33868	664.91296	
3509	35.080	-253.80927	8.14466	-200.81738	173.02318	9.22772	-127.43720	-360.90961	49.33060	419.65866	66.29266	49.54419	430.83597	-70.58482	750.01825	-820.22339	-80.21875	550.33813	-232.16595	73.49075	557.59479	-206.69170	-234.09407	565.10681	637.92212	-87.37222	567.60822	664.62750	
3510	35.090	-254.03925	7.86966	-200.96414	172.78830	9.13877	-127.60114	-361.01053	49.72790	419.46133	65.99842	50.03564	430.45218	-71.21746	749.84528	-820.93286	-81.23337	549.75482	-232.36446	71.65343	557.77344	-207.71187	-235.24324	566.29309	637.55231	-88.73241	568.53912	663.99268	
3511	35.100	-254.19080	7.54288	-201.17621	172.86949	9.14904	-127.61855	-361.22095	50.49196	419.13559	66.35640	50.94588	430.12015	-71.48280	749.25787	-821.20123	-82.21832	549.25403	-232.72583	70.85546	556.66187	-207.60820	-236.06648	567.21100	637.22406	-89.49736	569.60327	663.69434	
3512	35.110	-254.25198	7.32711	-201.37671	173.01668	8.56205	-128.22600	-361.21674	50.79591	418.95749	66.40943	51.39837	430.01547	-71.98197	748.67401	-821.56183	-83.20294	548.78864	-233.32658	69.99229	555.87714	-208.10538	-236.80034	568.51093	636.88495	-89.73885	570.76007	663.57813	
3513	35.120	-254.31416	7.03789	-201.63509	173.06406	8.46010	-128.41780	-361.21680	51.20028	418.72739	66.06767	51.95600	429.72003	-72.41579	748.24243	-821.98383	-84.14889	547.88708	-233.51070	68.67170	555.41724	-208.63690	-237.89441	569.62640	636.31348	-91.28300	571.72839	662.84442	
3514	35.130	-253.71303	6.35425	-201.56013	173.22362	8.31738	-128.68538	-361.07788	51.68622	418.47122	66.64725	52.81235	429.58838	-72.66848	747.81360	-822.55707	-84.86723	547.30701	-233.88593	68.69173	554.27521	-208.66473	-238.69084	570.61884	635.99683	-92.33952	572.84607	662.24927	
3515	35.140	-253.37180	5.92484	-201.57071	173.62622	8.21405	-128.93210	-360.93881	52.27484	418.00516	66.95078	53.47784	429.18924	-73.12832	747.26563	-822.88367	-85.97872	546.60028	-234.31462	67.84762	553.58649	-209.02380	-239.43347	571.80426	635.49542	-93.03999	574.00092	662.02118	
3516	35.150	-253.05661	5.45643	-201.71288	173.85741	8.10295	-129.07648	-360.69009	52.67019	417.92117	66.86314	53.72755	428.82590	-72.84245	746.71509	-822.94977	-86.83204	546.09467	-234.66734	66.95123	552.76740	-209.43375	-240.58417	572.93591	635.02637	-93.79677	574.93103	661.76276	
3517	35.160	-252.85692	5.15582	-201.92363	174.10745	8.00751	-129.17622	-360.46744	53.17183	417.55710	67.25281	54.47682	428.67792	-73.20246	746.26508	-823.40033	-87.46336	545.17969	-234.92683	66.26316	552.10913	-209.72134	-241.43555	574.14435	634.76410	-94.95885	576.03992	661.12628	
3518	35.170	-252.61948	5.04777	-201.94855	174.40889	7.95222	-129.24149	-360.14328	53.67329	417.39401	67.22188	55.00372	428.23315	-73.48121	745.91687	-823.67468	-88.05918	544.56189	-235.34752	65.35641	551.17712	-210.04704	-241.95058	575.13281	634.15405	-95.54456	577.15039	660.83594	
3519	35.180	-252.35692	4.61485	-202.27652	174.61646	8.02462	-129.29156	-359.90219	53.93769	417.22577	67.37884	55.50372	428.00854	-73.62868	745.60345	-823.75439	-89.01598	544.12488	-235.90038	64.60614	550.44250	-210.44307	-243.09157	576.25836	633.81927	-95.97593	578.15112	660.57678	
3520	35.190	-252.27409	4.42482	-202.38084	174.88658	8.06081	-129.16640	-359.55185	54.17022	416.99542	67.76807	56.13129	427.81451	-73.97103	745.11060	-824.09698	-89.57703	543.17584	-235.88968	64.05273	549.73767	-210.82794	-243.58806	577.49194	633.36633	-97.09350	579.23511	659.92963	
3521	35.200	-251.91435	3.93880	-202.48201	175.04140	8.00300	-129.29579	-359.26587	54.39964	416.84378	67.94103	56.57942	427.71179	-74.25454	744.60101	-824.35333	-90.23713	542.73511	-236.30783	63.36591	549.05170	-210.97783	-244.26569	578.47107	632.91339	-97.56974	580.13995	659.48871	
3522	35.210	-251.23636	3.46320	-202.51950	175.26558	7.40137	-129.82268	-358.94324	54.62926	416.64383	68.33065	57.06586	427.36050	-74.67966	744.33435	-824.71899	-91.05599	542.10516	-236.81284	62.62239	548.45636	-211.44019	-244.99950	579.46716	632.56427	-98.25341	581.32538	659.39246	
3523	35.220	-250.99512	3.32781	-202.60693	175.76653	7.36707	-130.21736	-358.23343	54.87562	416.78787	69.32331	57.64331	427.20618	-74.89198	743.99640	-824.72662	-91.67680	541.79712	-237.31149	62.02018	547.82959	-211.90424	-245.50507	580.59302	632.29254	-99.05266	582.04474	658.52185	
3524	35.230	-250.82091	3.21974	-202.74989	176.08195	7.37997	-130.50958	-358.26385	55.45424	416.20654	69.67593	58.06280	427.00851	-75.19339	743.72333	-824.69147	-91.91936	541.48370	-237.38918	61.66121	547.33997	-212.25092	-246.35626	581.54700	631.70404	-99.67544	582.81506	658.29468	
3525	35.240	-250.49240	3.11927	-202.99536	176.64587	7.43222	-130.52161	-357.75024	55.57232	416.05453	69.75607	58.20890	426.82748	-75.68306	743.24347	-824.47437	-92.28581	541.33350	-237.51601	61.18694	546.90985	-212.51488	-246.60126	582.26587	631.35522	-100.07050	583.42828	658.03125	
3526	35.250	-250.02188	2.93863	-203.12613	176.81607	7.42335	-130.50287	-357.39432	55.70394	415.96228	70.04437	58.68808	426.67087	-76.46529	742.01965	-823.80035	-92.75368	541.27081	-237.91705	60.80056	546.59161	-212.81819	-247.17343	583.27271	631.09497	-100.46141	584.12000	657.78229	
3527	35.260	-249.57552	2.69274	-203.18788	177.22241	7.23944	-130.61449	-356.98459	55.79876	415.76855	70.30988	59.14502	426.38776	-77.16882	740.19055	-823.32220	-93.06348	541.36163	-238.42316	60.68556	546.39484	-213.02946	-247.89230	583.91608	630.55615	-101.13502	584.41901	657.30859	
3528	35.270	-249.11948	2.64800	-203.18297	177.63535	7.13349	-130.53426	-356.41840	56.10103	415.72882	70.54459	59.39622	426.26547	-78.65627	737.82446	-822.55786	-93.20620	541.57623	-238.94553	60.50108	546.22760	-213.21570	-248.42726	584.68707	630.06647	-101.77561	584.87762	656.93713	
3529	35.280	-248.55280	2.47557	-203.27803	178.40204	7.29614	-130.28946	-356.26813	56.43067	415.54486	71.12796	59.65782	426.21332	-79.90327	734.72162	-822.26660	-93.09954	541.73767	-239.35245	60.57295	545.99304	-213.42003	-248.62846	585.45135	629.67511	-102.07139	585.25317	656.55646	
3530	35.290	-247.85559	2.41345	-203.80487	179.25507	7.58018	-130.15555	-355.86795	56.45538	415.43430	71.87626	60.12709	426.18210	-82.14416	731.09015	-821.75385	-92.91016	541.79187	-239.58183	60.93078	545.60712	-213.57861	-249.06604	586.28125	629.05737	-102.57308	585.90356	656.27405	
3531	35.300	-247.25594	2.29192	-203.85243	179.73697	7.48777	-130.36690	-355.26599	56.32015	415.36053	72.35470	60.42133	425.98468	-84.68947	726.96271	-821.68152	-92.42841	541.63141	-239.59677	61.14720	545.33002	-213.86732	-249.48918	587.27252	628.68311	-102.83890	586.43048	656.05334	
3532	35.310	-246.66182	2.29722	-203.80109	180.42805	7.58218	-130.40269	-354.65042	56.40865	415.15714	72.53873	60.54349	425.77576	-87.18597	721.98468	-821.25909	-92.28164	541.59369	-240.05676	61.42747	545.02649	-214.18521	-249.55203	588.28668	628.22357	-103.30308	587.42841	655.48364	
3533	35.320	-246.26935	2.11168	-203.81552	180.77296	7.41631	-130.79115	-354.02151	56.58966	414.93365	73.12648	60.77715	425.56064	-89.64549	716.90613	-821.04169	-91.95026	541.18396	-240.38940	61.61416	544.58160	-214.40060	-249.70979	589.20111	627.78723	-103.48478	588.30182	655.07092	
3534	35.330	-245.64737	1.86471	-203.87515	181.13547	6.78000	-131.15413	-353.55225	57.01811	414.64731	74.07201	61.04297	425.61600	-92.68333	711.41760	-820.85834	-91.69218	540.76727	-240.73830	61.95481	543.87164	-214.11406	-249.60420	590.56262	627.39392	-103.22895	589.48285	654.72321	
3535	35.340	-245.07523	1.74943	-203.80606	181.95264	6.98165	-130.86746	-352.79602	56.87206	414.58972	74.64787	61.12764	425.47488	-95.95956	705.44434	-820.60712	-91.44841	540.37299	-240.65034	62.07370	543.61505	-214.89665	-249.59926	591.47473	626.87811	-102.97637	590.43945	654.58057	
3536	35.350	-244.51434	1.57350	-203.76413	182.87250	7.00193	-130.83673	-352.05325	56.76136	414.61429	75.55374	61.26439	425.37790	-99.13506	699.23645	-820.23083	-90.00292	539.46765	-240.96811	62.24115	543.28394	-215.14655	-249.21541	592.59766	626.62073	-102.92399	591.70715	653.97803	
3537	35.360	-242.91394	0.62917	-204.00447	183.61055	7.11454	-130.92412	-351.43631	56.94304	414.42346	75.71564	61.05717	425.10532	-102.04999	692.69476	-819.87994	-90.84770	539.39178	-241.41052	62.47324	542.81085	-215.59721	-248.77812	594.04468	626.27423	-102.28071	592.95679	653.59283	
3538	35.370	-243.24500	1.35903	-203.99893	183.95627	7.04167	-131.02400	-350.90027	57.34469	414.36316	76.77293	61.26695	424.92780	-105.04228	686.04523	-819.57916	-90.38648	538.73755	-241.73587	62.48209	542.49011	-215.91161	-248.11993	594.98462	626.01532	-101.57692	594.05353	653.05737	
